<svg width="20" height="20" viewBox="0 0 20 20" fill="none" xmlns="http://www.w3.org/2000/svg">
<path fill-rule="evenodd" clip-rule="evenodd" d="M13.3349 17.5031H6.66547C4.36368 17.5031 2.49707 15.6365 2.49707 13.3347V6.66529C2.49707 4.3635 4.36368 2.49689 6.66547 2.49689H13.3349C15.6367 2.49689 17.5033 4.3635 17.5033 6.66529V13.3347C17.5033 15.6365 15.6367 17.5031 13.3349 17.5031Z" stroke="white" stroke-width="1.25" stroke-linecap="round" stroke-linejoin="round"/>
<path d="M9.99902 6.6653C9.88397 6.6653 9.7906 6.75867 9.79143 6.87372C9.79143 6.98877 9.8848 7.08214 9.99985 7.08214C10.1149 7.08214 10.2083 6.98877 10.2083 6.87372C10.2083 6.75867 10.1149 6.6653 9.99902 6.6653" stroke="white" stroke-width="1.25" stroke-linecap="round" stroke-linejoin="round"/>
<path d="M10.2084 13.4881V9.52814H9.37476" stroke="white" stroke-width="1.25" stroke-linecap="round" stroke-linejoin="round"/>
</svg>
