<svg width="131" height="40" viewBox="0 0 131 40" fill="none" xmlns="http://www.w3.org/2000/svg">
<path d="M68.0386 17.8074H59.9146V14.1714H67.388V11.1197H59.9146V7.50661H67.9936V4.40906H56.4586V20.9041H68.0386V17.8074Z" fill="#00308C"/>
<path d="M83.2983 16.1692C83.2983 9.43643 73.8281 12.3989 73.8281 8.85289C73.8281 7.66382 74.9951 6.92321 76.6326 6.92321C78.6974 6.92321 80.0215 8.20231 80.0215 9.99781L83.0962 8.65077C82.6477 6.02541 80.2908 3.96069 76.6326 3.96069C73.1096 3.96069 70.3492 6.04751 70.3492 9.10006C70.3492 15.7207 79.8202 12.8253 79.8202 16.2813C79.8202 17.5154 78.5182 18.2789 76.8348 18.2789C74.6129 18.2789 73.4315 16.8826 73.4315 14.7737L69.9449 16.3713C70.5063 19.5801 73.4238 21.2414 76.8348 21.2414C80.4258 21.2414 83.2983 19.423 83.2983 16.1692Z" fill="#00308C"/>
<path d="M89.2221 15.2715L90.6133 13.8573L96.0219 20.9043H101.43L92.6891 11.7008L101.057 4.40918H95.3484L90.0527 9.94349L89.2221 14.1495V4.40918H85.7661V20.9043H89.2221V15.2715Z" fill="#00308C"/>
<path d="M113.773 17.8074H105.649V14.1714H113.123V11.1197H105.649V7.50661H113.728V4.40906H102.193V20.9041H113.773V17.8074Z" fill="#00308C"/>
<path d="M46.6747 21.2411C50.0636 21.2411 52.846 19.6477 54.3273 16.7523L51.0157 14.5882C50.4101 16.6079 48.8745 18.1444 46.5846 18.1444C43.4879 18.1444 41.4903 15.8554 41.4903 12.6007C41.4903 9.25683 43.578 7.05788 46.6297 7.05788C48.9866 7.05788 50.264 8.70814 50.8925 10.5708L54.2152 8.38203C52.8689 5.50955 49.9285 3.96033 46.6747 3.96033C41.8496 3.96033 38.0343 7.37214 38.0343 12.5786C38.0343 17.65 41.6253 21.2411 46.6747 21.2411Z" fill="#00308C"/>
<path d="M50.528 0H41.8341V2.57434H50.528V0Z" fill="#00308C"/>
<path d="M112.33 0H103.637V2.57434H112.33V0Z" fill="#00308C"/>
<path d="M93.8806 23.5046L87.0646 39.9997H91.1202L92.3322 36.678H99.065L100.277 39.9997H104.355L97.5837 23.5046H93.8806ZM93.4763 33.6033L95.7211 27.4991L97.943 33.6033H93.4763Z" fill="#00308C"/>
<path d="M60.9667 23.5046L54.2654 39.722L45.7881 30.7962L54.1558 23.5046H48.4474L43.1509 29.039L42.3211 33.2449V23.5046H38.8643V39.9997H42.3211V34.3669L43.7123 32.9527L49.1209 39.9997H54.1507H54.5287H58.2064L59.4184 36.678H66.1511L67.3631 39.9997H71.4408L64.6699 23.5046H60.9667ZM60.5624 33.6033L62.8072 27.4991L65.0291 33.6033H60.5624Z" fill="#00308C"/>
<path d="M79.3441 33.5587H80.5782C84.1692 33.5587 86.1219 31.6961 86.1219 28.5543C86.1219 25.4126 83.945 23.505 80.5782 23.505H72.8135V39.9992H76.2695V33.5587H78.5135L83.0243 39.9992H87.0646L82.8901 34.2092L79.3441 33.5587ZM76.1242 30.484V26.6017H80.2979C81.7342 26.6017 82.5198 27.4324 82.5198 28.5543C82.5198 29.6763 81.7342 30.484 80.2979 30.484H76.1242Z" fill="#00308C"/>
<path d="M102.986 26.714H108.036V39.9994H111.492V26.714H116.519V23.5043H102.986V26.714Z" fill="#00308C"/>
<path d="M121.934 36.9025V33.2665H129.407V30.2148H121.934V26.6017H130.013V23.505H118.478V39.9992H130.058V36.9025H121.934Z" fill="#00308C"/>
<path d="M14.7305 22.9259L13.2994 23.9994L26.251 39.9994H36.5918L14.7305 22.9259Z" fill="#E40032"/>
<path d="M10.5053 26.0936L16.9781 39.9999H23.2794L11.9313 25.0243L10.5053 26.0936Z" fill="#E40032"/>
<path d="M8.30913 8.55004C8.30913 6.25936 6.44567 4.39587 4.15499 4.39587C1.86431 4.39587 0 6.25936 0 8.55004C0 10.8407 1.86431 12.7042 4.15499 12.7042C6.44567 12.7042 8.30913 10.8407 8.30913 8.55004Z" fill="#00308C"/>
<path d="M8.43235 25.5099L36.5915 4.3927H26.3068L3.16557 24.015L7.2798 39.9997H14.8576L8.37206 25.5549L8.43235 25.5099Z" fill="#00308C"/>
<path d="M14.7597 4.39612L2.26157 20.5167L2.68199 22.15L23.2794 4.39612H14.7597Z" fill="#00308C"/>
</svg>
