<svg width="24" height="24" viewBox="0 0 24 24" fill="none" xmlns="http://www.w3.org/2000/svg">
<path d="M12 21C7.029 21 3 16.971 3 12C3 7.029 7.029 3 12 3C16.971 3 21 7.029 21 12" stroke="#00308C" stroke-width="1.5" stroke-linecap="round" stroke-linejoin="round"/>
<path d="M3.51001 9H20.38" stroke="#00308C" stroke-width="1.5" stroke-linecap="round" stroke-linejoin="round"/>
<path d="M3.51001 15H12" stroke="#00308C" stroke-width="1.5" stroke-linecap="round" stroke-linejoin="round"/>
<path d="M16 12C16 9.236 15.277 6.472 13.833 4.06C12.986 2.647 11.014 2.647 10.168 4.06C7.27799 8.885 7.27799 15.116 10.168 19.941C10.591 20.647 11.296 21.001 12.001 21.001" stroke="#00308C" stroke-width="1.5" stroke-linecap="round" stroke-linejoin="round"/>
<path fill-rule="evenodd" clip-rule="evenodd" d="M19.1701 19.17L21.6751 18.168C22.1161 17.992 22.1061 17.364 21.6601 17.201L15.6941 15.032C15.2821 14.882 14.8831 15.282 15.0321 15.694L17.2011 21.66C17.3631 22.107 17.9911 22.116 18.1681 21.675L19.1701 19.17Z" stroke="#00308C" stroke-width="1.5" stroke-linecap="round" stroke-linejoin="round"/>
</svg>
