<svg width="40" height="40" viewBox="0 0 40 40" fill="none" xmlns="http://www.w3.org/2000/svg">
<path d="M16.7305 20.5332L15.2994 21.6067L28.251 37.6067H38.5918L16.7305 20.5332Z" fill="#E40032"/>
<path d="M12.5052 23.7009L18.9781 37.6072H25.2794L13.9313 22.6316L12.5052 23.7009Z" fill="#E40032"/>
<path d="M10.3091 6.15728C10.3091 3.8666 8.44567 2.00311 6.15499 2.00311C3.86431 2.00311 2 3.8666 2 6.15728C2 8.44797 3.86431 10.3114 6.15499 10.3114C8.44567 10.3114 10.3091 8.44797 10.3091 6.15728Z" fill="#00308C"/>
<path d="M10.4324 23.1172L38.5915 2H28.3068L5.16559 21.6223L9.27981 37.607H16.8577L10.3721 23.1622L10.4324 23.1172Z" fill="#00308C"/>
<path d="M16.7597 2.00342L4.2616 18.124L4.68202 19.7573L25.2795 2.00342H16.7597Z" fill="#00308C"/>
</svg>
