<svg width="96" height="40" viewBox="0 0 96 40" fill="none" xmlns="http://www.w3.org/2000/svg">
<path d="M96 27.3837C96 29.6514 94.1125 31.5069 91.8057 31.5069H4.19433C1.88726 31.5069 0 29.6514 0 27.3837V4.12324C0 1.85529 1.88726 0 4.19433 0H91.8057C94.1125 0 96 1.85529 96 4.12324V27.3837Z" fill="#00308C"/>
<path d="M15.6323 31.469L15.6251 40L27.2634 31.3843" fill="#00308C"/>
<path d="M9.37096 5.28088C7.79218 5.28088 6.50775 6.5433 6.50775 8.09482C6.50775 9.64684 7.79218 10.9093 9.37096 10.9093C10.9495 10.9093 12.2337 9.64684 12.2337 8.09482C12.2337 6.5433 10.9495 5.28088 9.37096 5.28088Z" fill="white"/>
<path d="M12.2766 17.241L27.1497 6.27628H21.9425L9.61011 16.5568L11.7833 24.8568H15.6343L12.1859 17.3072L12.2766 17.241Z" fill="white"/>
<path d="M27.1583 24.8567L15.7047 16.0627L15.0679 16.5318L21.9225 24.8567H27.1583Z" fill="#E40232"/>
<path d="M20.105 24.8567L14.1878 17.1808L13.5544 17.6475L16.9681 24.8567H20.105Z" fill="#E40232"/>
<path d="M9.30029 15.3813L20.0437 6.27826H15.7659L9.12219 14.7018L9.30029 15.3813Z" fill="white"/>
<path d="M32.0479 13.5064C32.2727 13.5064 32.9625 13.4417 33.2253 13.3521V11.8694C32.9635 11.9202 32.5452 11.9715 32.2986 11.9715C31.5347 11.9715 31.2772 11.7077 31.2772 10.9266V7.72002H33.3088V6.28105H31.2772V3.60556L29.535 4.89679V6.28105H28.2269V7.72002H29.535V11.1727C29.535 12.7648 30.3335 13.5064 32.0479 13.5064Z" fill="white"/>
<path d="M38.0232 7.74753C38.3448 7.74753 38.5927 7.78196 38.9221 7.87353V6.20235C38.6941 6.11835 38.5152 6.10321 38.2321 6.10321C37.4074 6.10321 36.893 6.58401 36.7459 6.74248L36.2782 8.89811V6.28098H34.536V13.3285H36.2782V9.92782C36.2782 8.5626 36.9307 7.74753 38.0232 7.74753Z" fill="white"/>
<path d="M50.9019 7.59706C51.9297 7.59706 52.3684 8.15087 52.3684 9.44918V13.3285H54.1106V9.18913C54.1106 7.11651 53.2032 6.02112 51.4864 6.02112C50.6987 6.02112 50.12 6.24185 49.6659 6.71581L49.1987 8.58404V6.28093H47.4565V13.3285H49.1987V9.59959C49.1987 8.32692 49.8194 7.59706 50.9019 7.59706Z" fill="white"/>
<path d="M58.1374 13.5338C59.0711 13.5338 59.7241 13.2193 60.1913 12.5441V10.8617L60.9727 13.3284H62.8084L62.0001 10.9128V6.28113H60.2579V9.84593C60.2579 11.2368 59.6317 12.0672 58.5827 12.0672C57.6706 12.0672 57.2275 11.5689 57.2275 10.5433V6.28113H55.485V10.7623C55.485 12.4719 56.5015 13.5338 58.1374 13.5338Z" fill="white"/>
<path d="M63.7643 5.0529H65.576V3.34021H63.7643V5.0529Z" fill="white"/>
<path d="M63.806 6.28101V16.0053L65.5483 14.7153V6.28101H63.806Z" fill="white"/>
<path d="M33.9185 24.8506H36.0474L32.8834 20.7352L32.9045 20.7151L35.9625 17.803H33.637L31.483 19.8798L30.8767 22.4471V14.8621H29.1345V24.8506H30.8767V22.6398L31.6656 21.8931L33.9185 24.8506Z" fill="white"/>
<path d="M41.8706 21.3269C41.8706 22.5903 40.9669 23.5072 39.7222 23.5072C38.4572 23.5072 37.5737 22.6106 37.5737 21.3269C37.5737 20.0318 38.4773 19.0917 39.7222 19.0917C40.9669 19.0917 41.8706 20.0318 41.8706 21.3269ZM39.3743 17.5431C37.2811 17.5431 35.7619 19.1344 35.7619 21.3269C35.7619 23.4877 37.287 25.0558 39.3882 25.0558C40.3889 25.0558 41.188 24.7264 41.763 24.0769L41.8994 22.1264L42.7938 24.8507H44.6294L43.5432 21.6961V17.8031H41.801V18.5938L41.7429 18.5311C41.1453 17.8847 40.3263 17.5431 39.3743 17.5431Z" fill="white"/>
<path d="M49.017 19.2696C49.3387 19.2696 49.5866 19.304 49.9159 19.3956V17.7244C49.6884 17.6409 49.5029 17.6253 49.2257 17.6253C48.4012 17.6253 47.8868 18.1061 47.7398 18.2645L47.2721 20.4199V17.803H45.5298V24.8506H47.2721V21.4499C47.2721 20.0847 47.9243 19.2696 49.017 19.2696Z" fill="white"/>
<path d="M56.3694 21.3269C56.3694 22.5903 55.4658 23.5072 54.2211 23.5072C52.956 23.5072 52.0725 22.6106 52.0725 21.3269C52.0725 20.0318 52.9762 19.0917 54.2211 19.0917C55.4658 19.0917 56.3694 20.0318 56.3694 21.3269ZM53.8731 17.5431C51.7799 17.5431 50.2607 19.1344 50.2607 21.3269C50.2607 23.4877 51.7859 25.0558 53.887 25.0558C54.8878 25.0558 55.6868 24.7264 56.2619 24.0769L56.3982 22.1264L57.2927 24.8507H59.1283L58.0421 21.6961V17.8031H56.2999V18.5938L56.2417 18.5311C55.6441 17.8847 54.8252 17.5431 53.8731 17.5431Z" fill="white"/>
<path d="M62.9176 25.0285C63.1423 25.0285 63.8321 24.9638 64.0949 24.8741V23.3915C63.8336 23.4423 63.4153 23.4935 63.1679 23.4935C62.4044 23.4935 62.1468 23.2298 62.1468 22.4487V19.2421H64.1784V17.8031H62.1468V15.1277L60.4043 16.4189V17.8031H59.0966V19.2421H60.4043V22.6948C60.4043 24.2869 61.2029 25.0285 62.9176 25.0285Z" fill="white"/>
<path d="M70.0751 20.6484H66.7467L66.7527 20.6106C66.9231 19.543 67.5326 18.955 68.4695 18.955C69.4599 18.955 70.0751 19.5913 70.0751 20.6157V20.6484ZM68.5252 17.5432C66.4158 17.5432 64.8848 19.146 64.8848 21.3541C64.8848 23.5683 66.3813 25.0559 68.6086 25.0559C70.0083 25.0559 71.1477 24.5304 71.8208 23.5752L70.5958 22.4756C70.212 23.2831 69.6146 23.644 68.6643 23.644C67.5438 23.644 66.896 23.0499 66.7387 21.8783L66.7338 21.8412H71.8916C71.9289 21.5848 71.9289 21.4015 71.9289 21.19C71.9289 19.0087 70.561 17.5432 68.5252 17.5432Z" fill="white"/>
<path d="M44.5201 9.12619H41.1917L41.1979 9.08834C41.3681 8.02102 41.9776 7.43304 42.9146 7.43304C43.9049 7.43304 44.5201 8.06937 44.5201 9.09347V9.12619ZM42.9702 6.02118C40.8609 6.02118 39.33 7.62398 39.33 9.83212C39.33 12.0461 40.8263 13.5339 43.0537 13.5339C44.4533 13.5339 45.5927 13.0082 46.2658 12.0532L45.0408 10.9534C44.657 11.7611 44.0596 12.122 43.1093 12.122C41.9888 12.122 41.341 11.5277 41.184 10.3561L41.1788 10.3193H46.3366C46.3739 10.0629 46.3739 9.87924 46.3739 9.66802C46.3739 7.48675 45.006 6.02118 42.9702 6.02118Z" fill="white"/>
<path d="M40.6068 5.03846H45.0967V3.70792H40.6068V5.03846Z" fill="white"/>
<path d="M72.8745 24.8492H74.6863V23.1365H72.8745V24.8492Z" fill="white"/>
<path d="M82.4961 19.5496L80.9089 20.4587C80.7432 19.6583 79.9981 19.1562 79.1148 19.1562C77.9416 19.1562 77.1135 19.9432 77.1135 21.2999C77.1135 22.6566 77.9277 23.4433 79.1148 23.4433C79.9705 23.4433 80.702 22.8873 80.9089 22.1816L82.4546 23.0636C81.9715 24.1898 80.7159 25.0581 79.1148 25.0581C76.81 25.0581 75.2503 23.5251 75.2503 21.2999C75.2503 19.0884 76.8651 17.5417 79.1148 17.5417C80.702 17.5417 82.0269 18.41 82.4961 19.5496Z" fill="white"/>
<path d="M89.4921 23.3078V24.8544H83.1573V23.2536L87.077 19.346H83.2401V17.7993H89.4093V19.4004L85.4897 23.3078H89.4921Z" fill="white"/>
</svg>
