<?xml version="1.0" encoding="UTF-8"?>
<svg id="design" xmlns="http://www.w3.org/2000/svg" version="1.1" viewBox="0 0 442.2 212.6">
  <defs>
    <style>
      .cls-1 {
        fill: #00308c;
      }

      .cls-1, .cls-2, .cls-3 {
        stroke-width: 0px;
      }

      .cls-2 {
        fill: #fff;
      }

      .cls-3 {
        fill: #e40032;
      }
    </style>
  </defs>
  <path class="cls-1" d="M401.3,30.7H46.1c-8.6,0-15.6,7-15.6,15.6v97.7c0,8.6,7,15.6,15.6,15.6h47.3v34.8s46.2-34.8,46.2-34.8h261.7c8.6,0,15.6-7,15.6-15.6V46.4c0-8.6-7-15.6-15.6-15.6Z"/>
  <path class="cls-2" d="M65.1,53c-6.4,0-11.5,5.2-11.5,11.5s5.2,11.5,11.5,11.5,11.5-5.2,11.5-11.5-5.2-11.5-11.5-11.5Z"/>
  <polygon class="cls-2" points="76.8 102 136.7 57.1 115.7 57.1 66.1 99.2 74.8 133.2 90.4 133.2 76.5 102.2 76.8 102"/>
  <polygon class="cls-3" points="136.7 133.2 90.6 97.2 88.1 99.1 115.7 133.2 136.7 133.2"/>
  <polygon class="cls-3" points="108.4 133.2 84.5 101.7 82 103.6 95.7 133.2 108.4 133.2"/>
  <polygon class="cls-2" points="64.9 94.4 108.1 57.1 90.9 57.1 64.1 91.6 64.9 94.4"/>
  <g>
    <path class="cls-2" d="M162.4,87.3c4.4,0,7.4-1.6,9.5-4l.5-7.2,3.4,10.4h7.6l-4.4-12.8v-27.8h-7.2v14.8c-2.2-2.4-5.3-4-9.5-4-8.6,0-14.5,6.6-14.5,15.4s6,15.2,14.5,15.2ZM163.8,63.3c4.6,0,8.4,3.5,8.4,8.9s-3.8,8.7-8.4,8.7-8.4-3.5-8.4-8.7,3.6-8.9,8.4-8.9Z"/>
    <path class="cls-2" d="M198.8,87.3c5.4,0,10.1-2,12.9-6.1l-5.1-4.6c-1.5,3.3-3.9,4.8-7.6,4.8s-6.8-2-7.5-7h20.4c.2-1.1.2-1.9.2-2.8,0-8.8-5.3-14.8-13.6-14.8s-14.6,6.5-14.6,15.5,5.7,15.1,14.9,15.1ZM198.2,62.7c4,0,6.2,2.6,6.2,6.5h0c0,0-12.9,0-12.9,0,.7-4.6,3.3-6.6,6.7-6.6Z"/>
    <rect class="cls-2" x="216.5" y="46" width="7.2" height="40.6"/>
    <path class="cls-2" d="M242.5,87.3c5.4,0,10.1-2,12.9-6.1l-5.1-4.6c-1.5,3.3-3.9,4.8-7.6,4.8s-6.8-2-7.5-7h20.4c.2-1.1.2-1.9.2-2.8,0-8.8-5.3-14.8-13.6-14.8s-14.6,6.5-14.6,15.5,5.7,15.1,14.9,15.1ZM242,62.7c4,0,6.2,2.6,6.2,6.5h0c0,0-12.9,0-12.9,0,.7-4.6,3.3-6.6,6.7-6.6Z"/>
    <rect class="cls-2" x="259.8" y="46" width="7.4" height="7.2"/>
    <polygon class="cls-2" points="267.2 92 267.2 57.8 260 57.8 260 99 267.2 92"/>
    <polygon class="cls-2" points="177.3 104.5 167.7 104.5 159.1 112.9 157 122.2 157 92.6 149.8 92.6 149.8 133.1 157 133.1 157 124.1 159.9 121.3 168.8 133.1 177.6 133.1 165 116.4 177.3 104.5"/>
    <path class="cls-2" d="M208,104.5h-7.2v3c-2.2-2.4-5.3-4-9.5-4-8.6,0-14.5,6.6-14.5,15.4s6,15.2,14.5,15.2,7.4-1.6,9.5-4l.5-7.3,3.4,10.5h7.6l-4.4-12.9v-15.8ZM192.7,127.5c-4.8,0-8.4-3.5-8.4-8.7s3.6-8.9,8.4-8.9,8.4,3.5,8.4,8.9-3.8,8.7-8.4,8.7Z"/>
    <path class="cls-2" d="M224,106.4l-1.6,7.5v-9.4h-7.2v28.7h7.2v-13.8c0-5.6,2.7-8.7,6.8-8.7s2.4.2,3.7.6v-7c-1-.4-1.8-.4-2.9-.4-2.9,0-5,1.5-6,2.6Z"/>
    <path class="cls-2" d="M264.7,104.5h-7.2v3c-2.2-2.4-5.3-4-9.5-4-8.6,0-14.5,6.6-14.5,15.4s6,15.2,14.5,15.2,7.4-1.6,9.5-4l.5-7.3,3.4,10.5h7.6l-4.4-12.9v-15.8ZM249.4,127.5c-4.8,0-8.4-3.5-8.4-8.7s3.6-8.9,8.4-8.9,8.4,3.5,8.4,8.9-3.8,8.7-8.4,8.7Z"/>
    <path class="cls-2" d="M281.2,93.5l-7.2,5.4v5.5h-5.2v6.1h5.2v13.8c0,6.8,3.5,9.5,10.1,9.5s3.8-.3,4.8-.7v-6.2c-1,.2-2.8.4-3.8.4-2.8,0-3.9-.8-3.9-4.1v-12.8h8.1v-6.1h-8.1v-10.9Z"/>
    <path class="cls-2" d="M305.9,103.4c-8.5,0-14.6,6.5-14.6,15.5s5.7,15.1,14.9,15.1,10.1-2,12.9-6.1l-5.1-4.6c-1.5,3.3-3.9,4.8-7.6,4.8s-6.8-2-7.5-7h20.4c.2-1.1.2-1.9.2-2.8,0-8.8-5.3-14.8-13.6-14.8ZM312,115.9h-12.9c.7-4.6,3.3-6.6,6.7-6.6s6.2,2.6,6.2,6.5h0Z"/>
    <rect class="cls-2" x="323" y="124.7" width="8.4" height="8.4"/>
    <path class="cls-2" d="M350,110c3.5,0,6.5,2,7.2,5.3l6.3-3.7c-1.9-4.6-7.2-8.2-13.5-8.2-9,0-15.4,6.3-15.4,15.3s6.2,15.3,15.4,15.3,11.4-3.5,13.4-8.1l-6.2-3.6c-.8,2.9-3.8,5.1-7.2,5.1s-8-3.2-8-8.7,3.3-8.7,8-8.7Z"/>
    <polygon class="cls-2" points="375.2 126.9 390.9 111 390.9 104.5 366.2 104.5 366.2 110.7 381.6 110.7 365.9 126.6 365.9 133.1 391.2 133.1 391.2 126.9 375.2 126.9"/>
    <rect class="cls-2" x="189.5" y="47.2" width="17.9" height="5.4"/>
  </g>
</svg>