<svg width="56" height="56" viewBox="0 0 56 56" fill="none" xmlns="http://www.w3.org/2000/svg">
<rect width="56" height="56" rx="28" fill="#001F63"/>
<path d="M17.5079 14C15.288 14 13.4819 15.8057 13.4819 18.0249C13.4819 20.2448 15.288 22.0504 17.5079 22.0504C19.7274 22.0504 21.5331 20.2448 21.5331 18.0249C21.5331 15.8057 19.7274 14 17.5079 14Z" fill="white"/>
<path d="M21.5931 31.1069L42.5061 15.4238H35.1842L17.8438 30.1283L20.8994 42H26.3144L21.4656 31.2016L21.5931 31.1069Z" fill="white"/>
<path d="M42.5188 41.9999L26.4141 29.4217L25.5186 30.0926L35.1567 41.9999H42.5188Z" fill="#E40232"/>
<path d="M32.6013 41.9999L24.2812 31.0209L23.3906 31.6884L28.1905 41.9999H32.6013Z" fill="#E40232"/>
<path d="M17.4086 28.447L32.5148 15.4266H26.4999L17.1582 27.475L17.4086 28.447Z" fill="white"/>
</svg>
