<svg width="70" height="21" viewBox="0 0 70 21" fill="none" xmlns="http://www.w3.org/2000/svg"><path fill-rule="evenodd" clip-rule="evenodd" d="M29.548 9.002a2.736 2.736 0 011.766.557c.455.366.71.937.684 1.532a2.44 2.44 0 01-.394 1.402c-.28.398-.652.718-1.082.93a5.575 5.575 0 01-1.62.513c-.664.11-1.337.162-2.01.157-.002.18.029.358.09.526.065.16.171.297.306.398.17.122.36.208.562.253.29.067.587.098.885.093.4.002.799-.043 1.188-.136a4.61 4.61 0 00.787-.246l-.398 1.713a6.058 6.058 0 01-1.958.306c-.52.01-1.038-.072-1.532-.241a2.723 2.723 0 01-1.047-.659 2.613 2.613 0 01-.591-.998A4.086 4.086 0 0125 13.836c0-.62.105-1.237.31-1.82.194-.574.498-1.1.895-1.547a4.327 4.327 0 013.343-1.467zm-.024 3.266c.202-.1.375-.252.502-.443a.926.926 0 00.142-.454.697.697 0 00-.257-.577 1.154 1.154 0 00-.726-.204c-.498.006-.98.184-1.37.506-.435.34-.736.883-.904 1.628a8.343 8.343 0 001.62-.127c.345-.058.68-.169.993-.329z" fill="#001F63"/><path d="M35.766 8.856a2.007 2.007 0 011.056-.26 4.9 4.9 0 011.375.172c.337.094.657.236.948.422L40 7.72a6.3 6.3 0 00-.418-.217 3.962 3.962 0 00-.612-.237 6.96 6.96 0 00-.826-.186A6.264 6.264 0 0037.09 7c-1.2 0-2.125.274-2.777.821a2.74 2.74 0 00-.982 2.19c-.008.32.041.64.146.946.089.244.224.47.4.667.173.19.377.352.604.48.234.135.488.27.758.405.22.105.424.207.616.311.178.098.345.214.497.346.136.117.25.256.334.41.084.157.126.33.122.505.008.216-.046.43-.157.619a1.326 1.326 0 01-.41.41 1.74 1.74 0 01-.598.231 3.76 3.76 0 01-.73.067c-.27.001-.537-.023-.8-.072a4.993 4.993 0 01-.698-.173 4.853 4.853 0 01-.563-.242 7.632 7.632 0 01-.416-.218v.01l-.435 1.7c.205.11.421.2.645.272a6.594 6.594 0 002.062.314c1.31 0 2.323-.273 3.04-.82.715-.547 1.075-1.35 1.079-2.407a2.656 2.656 0 00-.169-.99 2.337 2.337 0 00-.467-.727 2.976 2.976 0 00-.703-.545 9.948 9.948 0 00-.899-.45 4.338 4.338 0 01-.891-.492.933.933 0 01-.366-.8c0-.433.145-.736.435-.912z" fill="#001F63"/><path fill-rule="evenodd" clip-rule="evenodd" d="M43.191 9.5c.967 0 1.679.244 2.13.738a2.71 2.71 0 01.677 1.905 6.137 6.137 0 01-.295 1.86 4.606 4.606 0 01-.849 1.59 4.135 4.135 0 01-1.457 1.098 4.816 4.816 0 01-2.061.407c-.209 0-.372-.007-.488-.017-.1-.009-.2-.024-.298-.047l-.39 1.559L38 19.5l2.35-9.51c.228-.095.462-.172.702-.23.254-.063.507-.115.764-.154.228-.035.444-.056.654-.075l.085-.008c.237-.023.449-.023.636-.023zm.157 5.008c.244-.301.428-.646.545-1.014a3.95 3.95 0 00.195-1.216c0-.152-.016-.302-.048-.45-.03-.141-.09-.274-.175-.39a.844.844 0 00-.361-.27 1.568 1.568 0 00-.614-.104 4.04 4.04 0 00-.526.03 3.39 3.39 0 00-.384.077l-1.053 4.25a.46.46 0 00.176.031h.205c.402.008.8-.078 1.163-.25.34-.165.64-.402.877-.694zM46.646 16.216c.432.521 1.092.782 1.98.782a3.895 3.895 0 001.912-.433c.534-.284 1-.683 1.366-1.17.372-.493.65-1.052.823-1.648A6.62 6.62 0 0053 11.87c0-.95-.236-1.665-.708-2.147a2.498 2.498 0 00-1.864-.722 3.958 3.958 0 00-1.904.439 4.267 4.267 0 00-1.382 1.17 5.3 5.3 0 00-.846 1.648A6.39 6.39 0 0046 14.142c-.002.865.212 1.554.646 2.074zm3.223-1.236c-.24.19-.536.292-.84.287h.005c-.434 0-.722-.148-.864-.439a2.78 2.78 0 01-.212-1.199c.004-.325.05-.649.138-.962.083-.33.21-.648.377-.944.161-.28.374-.526.628-.722.238-.19.532-.29.834-.29.45.003.741.149.884.44.159.378.23.788.211 1.198a3.886 3.886 0 01-.53 1.909c-.167.276-.38.52-.63.722z" fill="#001F63"/><path d="M59.024 8.896l-.05.208.052-.208h-.002z" fill="#001F63"/><path d="M59 9.066l-.019.087-.376 1.704-.027.127a6.866 6.866 0 00-.816-.046c-.274 0-.548.02-.82.057a3.457 3.457 0 00-.777.187L54.881 17H53l1.626-7.34a8.284 8.284 0 013.13-.66c.415-.003.83.02 1.244.066zM60.065 13.953a3.114 3.114 0 00-.082.606c0 .312.107.52.323.621.232.107.485.16.74.158.299 0 .596-.034.887-.099.303-.066.6-.156.887-.27v.021l-.43 1.731c-.222.073-.45.13-.68.173-.391.071-.788.107-1.185.106-.85 0-1.484-.18-1.899-.54-.415-.36-.624-.88-.626-1.558 0-.17.012-.338.034-.506.021-.189.057-.375.106-.56l.367-1.485.258-1.038.051-.206.392-1.586.355-1.423L61.809 7l-.648 2.531H64l-.396 1.593h-2.828l-.71 2.829zM66.318 10.775c.127-.053.26-.088.398-.103.125-.015.25-.023.377-.023.422-.006.843.033 1.256.115.306.067.603.166.886.294L70 9.493a5.213 5.213 0 00-1.14-.343A7.777 7.777 0 0067.283 9c-1.16 0-2.031.235-2.612.705a2.318 2.318 0 00-.876 1.89c-.004.245.035.49.117.722.076.202.196.386.352.54.173.167.372.306.59.414.268.132.545.245.83.34.257.1.47.181.638.253.14.055.274.126.397.211a.655.655 0 01.202.218c.04.081.06.17.058.26a.638.638 0 01-.339.541c-.226.152-.636.226-1.232.224-.481.01-.96-.063-1.415-.215a9.27 9.27 0 01-.554-.213L63 16.61c.102.038.217.074.34.11.298.085.602.15.91.197.402.058.81.086 1.216.083a5.369 5.369 0 001.657-.222 3.354 3.354 0 001.13-.588 2.27 2.27 0 00.84-1.735 2.499 2.499 0 00-.107-.777 1.448 1.448 0 00-.352-.558 2.61 2.61 0 00-.605-.44 8.583 8.583 0 00-.87-.39 7.437 7.437 0 01-.675-.259 1.968 1.968 0 01-.388-.22.484.484 0 01-.175-.21.677.677 0 01-.044-.252.491.491 0 01.128-.346.91.91 0 01.313-.227z" fill="#001F63"/><path d="M59.02 8.913l-.042.175.044-.175h-.002z" fill="#001F63"/><path d="M59.021 8.913l-.044.175.046-.175h-.002zM21 10.5C21 16.299 16.299 21 10.5 21S0 16.299 0 10.5 4.701 0 10.5 0A10.498 10.498 0 0121 10.5z" fill="#001F63"/><path d="M13 5.002a2 2 0 11-4-.004 2 2 0 014 .004z" fill="#F4F3F3"/><path fill-rule="evenodd" clip-rule="evenodd" d="M16.01 8.471c.488.164.928.523.98 1.047.06.427-.176.829-.398 1.177a12.909 12.909 0 01-1.857 2.226c-.818.813-1.68 1.57-2.56 2.316.566.44 1.138.872 1.72 1.292l-.058.056-1.151 1.1-.327.315c-.01.007-.345-.25-.48-.354a6.234 6.234 0 00-.053-.04l-.634-.487c-1.853-1.417-3.676-2.887-5.272-4.557-.633-.661-1.261-1.368-1.692-2.17a1.754 1.754 0 01-.218-.59c-.033-.248.019-.5.147-.719.254-.422.714-.598 1.185-.711.998-.24 2.042-.286 3.068-.33l.248-.01a46.365 46.365 0 012.606-.025c1.094.003 2.186.061 3.273.174a9.25 9.25 0 011.141.196c.114.02.225.052.333.094zm-5.484 5.4l.14-.118.01-.005c.71-.593 1.41-1.202 2.083-1.837a17.422 17.422 0 001.583-1.663 16.163 16.163 0 00-.92-.083c-1.143-.086-2.292-.098-3.437-.086a29.947 29.947 0 00-3.31.175c.533.637 1.111 1.24 1.73 1.802.355.335.719.663 1.09.986.193.168.388.334.584.498l.31.262.081.068c.018.032.038.032.056 0z" fill="#F4F3F3"/></svg>