<svg width="131" height="40" viewBox="0 0 131 40" fill="none" xmlns="http://www.w3.org/2000/svg"><path d="M68.039 17.807h-8.124v-3.636h7.473V11.12h-7.473V7.507h8.079V4.409H56.459v16.495h11.58v-3.097zM83.298 16.17c0-6.734-9.47-3.771-9.47-7.317 0-1.19 1.167-1.93 2.805-1.93 2.064 0 3.389 1.28 3.389 3.075l3.074-1.347c-.448-2.626-2.805-4.69-6.463-4.69-3.523 0-6.284 2.087-6.284 5.14 0 6.62 9.471 3.724 9.471 7.18 0 1.234-1.302 1.998-2.985 1.998-2.222 0-3.403-1.396-3.403-3.505l-3.487 1.597c.561 3.21 3.479 4.87 6.89 4.87 3.59 0 6.463-1.818 6.463-5.072zM89.222 15.271l1.391-1.414 5.409 7.047h5.408l-8.74-9.203 8.367-7.292h-5.709l-5.295 5.534-.83 4.207V4.41h-3.457v16.494h3.456v-5.633zM113.773 17.807h-8.124v-3.636h7.474V11.12h-7.474V7.507h8.079V4.409h-11.535v16.495h11.58v-3.097zM46.675 21.241c3.389 0 6.171-1.593 7.652-4.489l-3.311-2.164c-.606 2.02-2.142 3.556-4.431 3.556-3.097 0-5.095-2.289-5.095-5.543 0-3.344 2.088-5.543 5.14-5.543 2.357 0 3.634 1.65 4.262 3.513l3.323-2.189C52.87 5.51 49.928 3.96 46.675 3.96c-4.825 0-8.64 3.412-8.64 8.619 0 5.071 3.59 8.662 8.64 8.662zM50.528 0h-8.694v2.574h8.694V0zM112.33 0h-8.693v2.574h8.693V0zM93.88 23.505L87.066 40h4.055l1.212-3.322h6.733L100.277 40h4.078l-6.771-16.495H93.88zm-.404 10.098l2.245-6.104 2.222 6.104h-4.467zM60.967 23.505l-6.702 16.217-8.477-8.926 8.368-7.291h-5.709l-5.296 5.534-.83 4.206v-9.74h-3.457V40h3.457v-5.633l1.391-1.414L49.121 40h9.085l1.212-3.322h6.733L67.363 40h4.078L64.67 23.505h-3.703zm-.405 10.098l2.245-6.104 2.222 6.104h-4.467zM79.344 33.559h1.234c3.591 0 5.544-1.863 5.544-5.005 0-3.141-2.177-5.049-5.544-5.049h-7.764v16.494h3.456v-6.44h2.243l4.511 6.44h4.04l-4.174-5.79-3.546-.65zm-3.22-3.075v-3.882h4.174c1.436 0 2.222.83 2.222 1.952 0 1.122-.786 1.93-2.222 1.93h-4.174zM102.986 26.714h5.05v13.285h3.456V26.714h5.027v-3.21h-13.533v3.21zM121.934 36.903v-3.636h7.473v-3.052h-7.473v-3.613h8.079v-3.097h-11.535v16.494h11.58v-3.096h-8.124z" fill="#00308C"/><path d="M14.73 22.926l-1.43 1.073L26.25 40h10.34l-21.86-17.073zM10.505 26.094L16.978 40h6.301L11.931 25.024l-1.426 1.07z" fill="#E40032"/><path d="M8.31 8.55a4.159 4.159 0 00-4.155-4.154A4.16 4.16 0 000 8.55a4.16 4.16 0 004.155 4.154A4.159 4.159 0 008.309 8.55zM8.432 25.51l28.16-21.117H26.307L3.166 24.015 7.28 40h7.578L8.372 25.555l.06-.045zM14.76 4.396L2.262 20.516l.42 1.634L23.279 4.396h-8.52z" fill="#00308C"/></svg>