<svg width="24" height="24" viewBox="0 0 24 24" fill="none" xmlns="http://www.w3.org/2000/svg"><path d="M12 21a9 9 0 01-9-9 9 9 0 019-9 9 9 0 019 9M3.51 9h16.87M3.51 15H12" stroke="#00308C" stroke-width="1.5" stroke-linecap="round" stroke-linejoin="round"/><path d="M16 12c0-2.764-.723-5.528-2.167-7.94a2.114 2.114 0 00-3.665 0c-2.89 4.825-2.89 11.056 0 15.881a2.125 2.125 0 001.833 1.06" stroke="#00308C" stroke-width="1.5" stroke-linecap="round" stroke-linejoin="round"/><path clip-rule="evenodd" d="M19.17 19.17l2.505-1.002a.518.518 0 00-.015-.967l-5.966-2.169a.517.517 0 00-.662.662l2.17 5.966c.161.447.79.456.966.015l1.002-2.505z" stroke="#00308C" stroke-width="1.5" stroke-linecap="round" stroke-linejoin="round"/></svg>