<svg width="56" height="56" viewBox="0 0 56 56" fill="none" xmlns="http://www.w3.org/2000/svg"><rect width="56" height="56" rx="28" fill="#001F63"/><path d="M17.508 14a4.03 4.03 0 00-4.026 4.025 4.03 4.03 0 004.026 4.025 4.03 4.03 0 004.025-4.025A4.03 4.03 0 0017.508 14zM21.593 31.107l20.913-15.683h-7.322l-17.34 14.704L20.899 42h5.415l-4.848-10.798.127-.095z" fill="#fff"/><path d="M42.519 42L26.414 29.422l-.895.67L35.157 42h7.362zM32.601 42l-8.32-10.98-.89.668L28.19 42h4.41z" fill="#E40232"/><path d="M17.409 28.447l15.106-13.02H26.5l-9.342 12.048.25.972z" fill="#fff"/></svg>