<svg id="design" xmlns="http://www.w3.org/2000/svg" version="1.1" viewBox="0 0 442.2 212.6"><defs><style>.cls-2,.cls-3{stroke-width:0}.cls-2{fill:#fff}.cls-3{fill:#e40032}</style></defs><path d="M401.3 30.7H46.1c-8.6 0-15.6 7-15.6 15.6V144c0 8.6 7 15.6 15.6 15.6h47.3v34.8l46.2-34.8h261.7c8.6 0 15.6-7 15.6-15.6V46.4c0-8.6-7-15.6-15.6-15.6z" stroke-width="0" fill="#00308c"/><path class="cls-2" d="M65.1 53c-6.4 0-11.5 5.2-11.5 11.5S58.8 76 65.1 76s11.5-5.2 11.5-11.5S71.4 53 65.1 53zM76.8 102l59.9-44.9h-21L66.1 99.2l8.7 34h15.6l-13.9-31 .3-.2z"/><path class="cls-3" d="M136.7 133.2l-46.1-36-2.5 1.9 27.6 34.1h21zM108.4 133.2l-23.9-31.5-2.5 1.9 13.7 29.6h12.7z"/><path class="cls-2" d="M64.9 94.4l43.2-37.3H90.9L64.1 91.6l.8 2.8zM162.4 87.3c4.4 0 7.4-1.6 9.5-4l.5-7.2 3.4 10.4h7.6L179 73.7V45.9h-7.2v14.8c-2.2-2.4-5.3-4-9.5-4-8.6 0-14.5 6.6-14.5 15.4s6 15.2 14.5 15.2zm1.4-24c4.6 0 8.4 3.5 8.4 8.9s-3.8 8.7-8.4 8.7-8.4-3.5-8.4-8.7 3.6-8.9 8.4-8.9zM198.8 87.3c5.4 0 10.1-2 12.9-6.1l-5.1-4.6c-1.5 3.3-3.9 4.8-7.6 4.8s-6.8-2-7.5-7h20.4c.2-1.1.2-1.9.2-2.8 0-8.8-5.3-14.8-13.6-14.8s-14.6 6.5-14.6 15.5 5.7 15.1 14.9 15.1zm-.6-24.6c4 0 6.2 2.6 6.2 6.5h-12.9c.7-4.6 3.3-6.6 6.7-6.6zM216.5 46h7.2v40.6h-7.2zM242.5 87.3c5.4 0 10.1-2 12.9-6.1l-5.1-4.6c-1.5 3.3-3.9 4.8-7.6 4.8s-6.8-2-7.5-7h20.4c.2-1.1.2-1.9.2-2.8 0-8.8-5.3-14.8-13.6-14.8s-14.6 6.5-14.6 15.5 5.7 15.1 14.9 15.1zm-.5-24.6c4 0 6.2 2.6 6.2 6.5h-12.9c.7-4.6 3.3-6.6 6.7-6.6zM259.8 46h7.4v7.2h-7.4zM267.2 92V57.8H260V99l7.2-7zM177.3 104.5h-9.6l-8.6 8.4-2.1 9.3V92.6h-7.2v40.5h7.2v-9l2.9-2.8 8.9 11.8h8.8L165 116.4l12.3-11.9z"/><path class="cls-2" d="M208 104.5h-7.2v3c-2.2-2.4-5.3-4-9.5-4-8.6 0-14.5 6.6-14.5 15.4s6 15.2 14.5 15.2 7.4-1.6 9.5-4l.5-7.3 3.4 10.5h7.6l-4.4-12.9v-15.8zm-15.3 23c-4.8 0-8.4-3.5-8.4-8.7s3.6-8.9 8.4-8.9 8.4 3.5 8.4 8.9-3.8 8.7-8.4 8.7zM224 106.4l-1.6 7.5v-9.4h-7.2v28.7h7.2v-13.8c0-5.6 2.7-8.7 6.8-8.7s2.4.2 3.7.6v-7c-1-.4-1.8-.4-2.9-.4-2.9 0-5 1.5-6 2.6zM264.7 104.5h-7.2v3c-2.2-2.4-5.3-4-9.5-4-8.6 0-14.5 6.6-14.5 15.4s6 15.2 14.5 15.2 7.4-1.6 9.5-4l.5-7.3 3.4 10.5h7.6l-4.4-12.9v-15.8zm-15.3 23c-4.8 0-8.4-3.5-8.4-8.7s3.6-8.9 8.4-8.9 8.4 3.5 8.4 8.9-3.8 8.7-8.4 8.7zM281.2 93.5l-7.2 5.4v5.5h-5.2v6.1h5.2v13.8c0 6.8 3.5 9.5 10.1 9.5s3.8-.3 4.8-.7v-6.2c-1 .2-2.8.4-3.8.4-2.8 0-3.9-.8-3.9-4.1v-12.8h8.1v-6.1h-8.1V93.4zM305.9 103.4c-8.5 0-14.6 6.5-14.6 15.5S297 134 306.2 134s10.1-2 12.9-6.1l-5.1-4.6c-1.5 3.3-3.9 4.8-7.6 4.8s-6.8-2-7.5-7h20.4c.2-1.1.2-1.9.2-2.8 0-8.8-5.3-14.8-13.6-14.8zm6.1 12.5h-12.9c.7-4.6 3.3-6.6 6.7-6.6s6.2 2.6 6.2 6.5zM323 124.7h8.4v8.4H323zM350 110c3.5 0 6.5 2 7.2 5.3l6.3-3.7c-1.9-4.6-7.2-8.2-13.5-8.2-9 0-15.4 6.3-15.4 15.3S340.8 134 350 134s11.4-3.5 13.4-8.1l-6.2-3.6c-.8 2.9-3.8 5.1-7.2 5.1s-8-3.2-8-8.7 3.3-8.7 8-8.7zM375.2 126.9l15.7-15.9v-6.5h-24.7v6.2h15.4l-15.7 15.9v6.5h25.3v-6.2h-16zM189.5 47.2h17.9v5.4h-17.9z"/></svg>