<svg width="96" height="40" viewBox="0 0 96 40" fill="none" xmlns="http://www.w3.org/2000/svg"><path d="M96 27.384c0 2.267-1.888 4.123-4.194 4.123H4.194C1.887 31.507 0 29.65 0 27.384V4.124C0 1.854 1.887 0 4.194 0h87.612C94.112 0 96 1.855 96 4.123v23.26z" fill="#00308C"/><path d="M15.632 31.469L15.625 40l11.638-8.616" fill="#00308C"/><path d="M9.371 5.28c-1.579 0-2.863 1.263-2.863 2.815s1.284 2.814 2.863 2.814 2.863-1.262 2.863-2.814S10.95 5.28 9.37 5.28zM12.277 17.241L27.15 6.276h-5.207L9.61 16.556l2.173 8.3h3.851l-3.448-7.549.09-.066z" fill="#fff"/><path d="M27.158 24.857l-11.453-8.794-.637.469 6.854 8.325h5.236zM20.105 24.857l-5.917-7.676-.634.466 3.414 7.21h3.137z" fill="#E40232"/><path d="M9.3 15.381l10.744-9.103h-4.278l-6.644 8.424.178.68zM32.048 13.506c.225 0 .914-.064 1.177-.154V11.87c-.261.051-.68.103-.926.103-.764 0-1.022-.264-1.022-1.045V7.72h2.032V6.281h-2.032V3.606l-1.742 1.29v1.385h-1.308V7.72h1.308v3.453c0 1.592.799 2.333 2.513 2.333zM38.023 7.748c.322 0 .57.034.9.126V6.202c-.229-.084-.408-.099-.69-.099-.826 0-1.34.481-1.487.64l-.468 2.155V6.281h-1.742v7.048h1.742V9.928c0-1.365.653-2.18 1.745-2.18zM50.902 7.597c1.028 0 1.466.554 1.466 1.852v3.88h1.743v-4.14c0-2.072-.908-3.168-2.625-3.168-.787 0-1.366.22-1.82.695l-.467 1.868V6.281h-1.742v7.048h1.742v-3.73c0-1.272.62-2.002 1.703-2.002zM58.137 13.534c.934 0 1.587-.315 2.054-.99v-1.682l.782 2.466h1.835L62 10.913V6.28h-1.742v3.565c0 1.39-.626 2.221-1.675 2.221-.912 0-1.355-.498-1.355-1.524V6.281h-1.743v4.481c0 1.71 1.017 2.772 2.652 2.772zM63.764 5.053h1.812V3.34h-1.812v1.713zM63.806 6.281v9.724l1.742-1.29V6.281h-1.742zM33.919 24.85h2.128l-3.164-4.115.021-.02 3.058-2.912h-2.325l-2.154 2.077-.606 2.567v-7.585h-1.742v9.989h1.742V22.64l.789-.747 2.253 2.958z" fill="#fff"/><path d="M41.87 21.327c0 1.263-.903 2.18-2.148 2.18-1.265 0-2.148-.896-2.148-2.18 0-1.295.903-2.235 2.148-2.235s2.149.94 2.149 2.235zm-2.496-3.784c-2.093 0-3.612 1.591-3.612 3.784 0 2.16 1.525 3.729 3.626 3.729 1 0 1.8-.33 2.375-.98l.136-1.95.895 2.725h1.835l-1.086-3.155v-3.893h-1.742v.79l-.058-.062c-.598-.646-1.417-.988-2.369-.988zM49.017 19.27c.322 0 .57.034.899.126v-1.672c-.228-.083-.413-.099-.69-.099-.825 0-1.34.481-1.486.64l-.468 2.155v-2.617H45.53v7.048h1.742V21.45c0-1.365.652-2.18 1.745-2.18zM56.37 21.327c0 1.263-.904 2.18-2.149 2.18-1.265 0-2.148-.896-2.148-2.18 0-1.295.903-2.235 2.148-2.235s2.148.94 2.148 2.235zm-2.497-3.784c-2.093 0-3.612 1.591-3.612 3.784 0 2.16 1.525 3.729 3.626 3.729 1 0 1.8-.33 2.375-.98l.136-1.95.895 2.725h1.835l-1.086-3.155v-3.893H56.3v.79l-.058-.062c-.598-.646-1.417-.988-2.369-.988zM62.918 25.029c.224 0 .914-.065 1.177-.155v-1.482c-.261.05-.68.102-.927.102-.764 0-1.021-.264-1.021-1.045v-3.207h2.031v-1.439h-2.031v-2.675l-1.743 1.29v1.385h-1.307v1.44h1.307v3.452c0 1.592.799 2.334 2.514 2.334zM70.075 20.648h-3.328l.006-.037c.17-1.068.78-1.656 1.716-1.656.99 0 1.606.636 1.606 1.66v.033zm-1.55-3.105c-2.11 0-3.64 1.603-3.64 3.811 0 2.214 1.496 3.702 3.724 3.702 1.4 0 2.539-.526 3.212-1.48l-1.225-1.1c-.384.807-.981 1.168-1.932 1.168-1.12 0-1.768-.594-1.925-1.766l-.005-.037h5.158c.037-.256.037-.44.037-.651 0-2.181-1.368-3.647-3.404-3.647zM44.52 9.126h-3.328l.006-.038c.17-1.067.78-1.655 1.717-1.655.99 0 1.605.636 1.605 1.66v.033zm-1.55-3.105c-2.11 0-3.64 1.603-3.64 3.811 0 2.214 1.496 3.702 3.724 3.702 1.4 0 2.539-.526 3.212-1.48l-1.225-1.1c-.384.807-.981 1.168-1.932 1.168-1.12 0-1.768-.594-1.925-1.766l-.005-.037h5.158c.037-.256.037-.44.037-.651 0-2.181-1.368-3.647-3.404-3.647zM40.607 5.038h4.49v-1.33h-4.49v1.33zM72.874 24.85h1.812v-1.713h-1.812v1.712zM82.496 19.55l-1.587.909c-.166-.8-.91-1.303-1.794-1.303-1.173 0-2.001.787-2.001 2.144 0 1.357.814 2.143 2 2.143.856 0 1.588-.556 1.795-1.261l1.546.882c-.483 1.126-1.74 1.994-3.34 1.994-2.305 0-3.865-1.533-3.865-3.758 0-2.212 1.615-3.758 3.865-3.758 1.587 0 2.912.868 3.381 2.008zM89.492 23.308v1.546h-6.335v-1.6l3.92-3.908H83.24v-1.547h6.17V19.4l-3.92 3.908h4.002z" fill="#fff"/></svg>