<svg width="40" height="40" viewBox="0 0 40 40" fill="none" xmlns="http://www.w3.org/2000/svg"><path d="M16.73 20.533l-1.43 1.074 12.951 16h10.34l-21.86-17.074zM12.505 23.7l6.473 13.907h6.301L13.931 22.632 12.505 23.7z" fill="#E40032"/><path d="M10.31 6.157a4.159 4.159 0 00-4.155-4.154A4.16 4.16 0 002 6.157a4.16 4.16 0 004.155 4.154 4.159 4.159 0 004.154-4.154zM10.432 23.117L38.592 2H28.307L5.166 21.622 9.28 37.607h7.578l-6.486-14.445.06-.045zM16.76 2.003L4.262 18.124l.42 1.633L25.279 2.003h-8.52z" fill="#00308C"/></svg>