<svg width="24" height="24" viewBox="0 0 24 24" fill="none" xmlns="http://www.w3.org/2000/svg"><path clip-rule="evenodd" d="M3 6.8v0c0 .6.3 1.1.8 1.5l6 4.1c1.4.9 3.1.9 4.5 0l6-4c.4-.5.7-1 .7-1.6v0c0-1-.8-1.8-1.8-1.8H4.8C3.8 5 3 5.8 3 6.8z" stroke="#001F63" stroke-width="1.5" stroke-linecap="round" stroke-linejoin="round"/><path d="M3 7v10c0 1.1.9 2 2 2h14c1.1 0 2-.9 2-2V7M3.588 18.412l6.094-6.094M14.36 12.36l6.052 6.052" stroke="#001F63" stroke-width="1.5" stroke-linecap="round" stroke-linejoin="round"/></svg>